<svg viewBox="0 0 24 24">
  <path d="M12.43 8.42a2.2 2.2 0 0 1-2.2-2.21c0-1.22.99-2.21 2.2-2.21s2.2.99 2.2 2.21a2.2 2.2 0 0 1-2.2 2.21zm-4.67 1.76a2.01 2.01 0 0 1-2.01-2.02c0-1.12.9-2.02 2-2.02 1.11 0 2.01.9 2.01 2.02a2.02 2.02 0 0 1-2 2.02zm-1.99 4.57a1.77 1.77 0 0 1-1.63-1.1 1.79 1.79 0 0 1 .38-1.95 1.76 1.76 0 0 1 1.93-.38 1.78 1.78 0 0 1 1.1 1.64 1.78 1.78 0 0 1-1.78 1.78zm1.99 4.52a1.5 1.5 0 0 1-1.5-1.51 1.5 1.5 0 1 1 3 0 1.5 1.5 0 0 1-1.5 1.5zM12.43 21c-.72 0-1.3-.6-1.3-1.32 0-.73.58-1.32 1.3-1.32.73 0 1.31.6 1.31 1.32a1.3 1.3 0 0 1-1.3 1.32zm4.75-2.23a1.06 1.06 0 0 1-1.06-1.07c0-.58.47-1.06 1.06-1.06a1.06 1.06 0 0 1 0 2.13zm1.94-4.93a.87.87 0 0 1-.87-.87c0-.48.4-.87.87-.87a.88.88 0 0 1 .61 1.49.86.86 0 0 1-.61.25zM16.5 8.22a.68.68 0 0 1 1.3-.26c.12.3.02.64-.25.82a.68.68 0 0 1-1.05-.56z"/>
</svg>
