<svg class="contacts__icon" viewBox="0 0 477.16 477.16">
  <path class="fill-pink" d="m475 380.32-2.37-7.16c-5.62-16.72-24.06-34.16-41-38.75l-62.68-17.13c-17-4.62-41.25 1.6-53.7 14.04L292.58 354a240.66 240.66 0 0 1-169.36-169.37l22.69-22.69c12.44-12.44 18.66-36.66 14.03-53.66l-17.1-62.72c-4.62-16.96-22.09-35.4-38.77-40.96L96.9 2.19c-16.72-5.56-40.56.06-53 12.5L9.96 48.66C3.9 54.69.02 71.94.02 72a400.82 400.82 0 0 0 117.29 287.78A400.93 400.93 0 0 0 404.2 477.1c.56 0 18.3-3.82 24.37-9.85l33.94-33.94c12.44-12.43 18.06-36.27 12.5-53z"/>
</svg>
