<svg class="contacts__icon" viewBox="0 0 128 128">

  <path class="fill-pink"  d="M96 93.44c-2.83 3.94-7 7.06-12.42 9.27-5.35 2.2-11.76 3.32-19.07 3.32-8.77 0-16.12-1.53-21.86-4.53a28.33 28.33 0 0 1-10.05-8.8c-2.6-3.68-3.9-7.34-3.9-10.88 0-2.2.85-4.1 2.54-5.67a9.01 9.01 0 0 1 6.37-2.34c2.1 0 3.9.62 5.38 1.84a13.81 13.81 0 0 1 3.58 5.16 29.92 29.92 0 0 0 3.5 6.12 13.57 13.57 0 0 0 5.12 3.92c2.22 1.02 5.2 1.55 8.87 1.55 5.05 0 9.19-1.06 12.3-3.16 3.04-2.04 4.52-4.5 4.52-7.51 0-2.37-.78-4.24-2.36-5.7a17.1 17.1 0 0 0-6.51-3.55c-2.78-.85-6.54-1.78-11.2-2.74-6.35-1.34-11.73-2.92-16-4.72a26.32 26.32 0 0 1-10.5-7.56c-2.61-3.24-3.94-7.3-3.94-12.07 0-4.54 1.39-8.64 4.14-12.17 2.73-3.51 6.72-6.26 11.86-8.12 5.06-1.85 11.08-2.78 17.9-2.78 5.46 0 10.25.62 14.25 1.85a31.52 31.52 0 0 1 10.08 4.95c2.69 2.08 4.69 4.28 5.94 6.58a14.37 14.37 0 0 1 1.91 6.86c0 2.16-.84 4.11-2.5 5.81a8.42 8.42 0 0 1-6.27 2.6c-2.26 0-4.04-.56-5.26-1.62-1.14-1-2.33-2.56-3.65-4.79a19.96 19.96 0 0 0-5.48-6.68c-2.05-1.55-5.48-2.32-10.2-2.32-4.36 0-7.93.86-10.57 2.57-2.54 1.64-3.78 3.54-3.78 5.78 0 1.36.4 2.51 1.22 3.49a10.82 10.82 0 0 0 3.64 2.73c1.6.8 3.26 1.43 4.91 1.88 1.7.46 4.54 1.15 8.45 2.05 4.94 1.03 9.48 2.21 13.49 3.48a43.33 43.33 0 0 1 10.45 4.7 20.7 20.7 0 0 1 6.88 7.16c1.65 2.9 2.49 6.46 2.49 10.6 0 4.96-1.45 9.48-4.28 13.44zm28.32-15.85a59.5 59.5 0 0 0 1.4-12.93c0-33.23-27.32-60.19-61.04-60.19-3.56 0-7.04.3-10.44.89A35.57 35.57 0 0 0 35.4 0C15.85 0 0 15.62 0 34.91c0 6.44 1.78 12.47 4.86 17.66a60.2 60.2 0 0 0-1.23 12.1c0 33.25 27.33 60.2 61.05 60.2 3.82 0 7.55-.36 11.18-1.02A35.66 35.66 0 0 0 92.6 128c19.55 0 35.4-15.63 35.4-34.9 0-5.58-1.33-10.84-3.68-15.51z" />
</svg>
