<svg class="social__icon" viewBox="0 0 208 208">
  <path class="fill-whatsup" d="M104 0C46.65 0 0 46.65 0 104c0 19.56 5.44 38.55 15.75 55.05-4.1 14.4-11.53 41.61-11.6 41.9a4 4 0 0 0 5.03 4.87l41.22-12.68A103.76 103.76 0 0 0 104 208c57.35 0 104-46.65 104-104S161.35 0 104 0zm0 200a95.75 95.75 0 0 1-50.93-14.6 4.02 4.02 0 0 0-3.3-.44l-36 11.08c2.65-9.65 7.4-26.92 10.16-36.52a4.01 4.01 0 0 0-.49-3.29A95.61 95.61 0 0 1 8 104C8 51.07 51.07 8 104 8s96 43.07 96 96-43.07 96-96 96z"/>
  <path class="fill-whatsup" d="M171.94 128.5a289.88 289.88 0 0 1-18.26-11.2c-3.5-2.3-6.04-3.95-7.9-4.88-5.18-2.59-9.11-.76-10.6.75-.2.19-.36.4-.5.61-5.4 8.08-12.43 15.82-14.5 16.23-2.37-.37-13.51-6.7-24.59-15.92-11.3-9.43-18.41-18.45-19.46-24.59C83.4 82.04 86 77.34 86 72c0-5.5-12.85-28.5-15.17-30.83-2.33-2.33-7.58-2.69-15.62-1.1a4 4 0 0 0-2.04 1.1c-.97.97-23.71 24.16-12.9 52.27 11.86 30.84 42.31 66.7 81.14 72.52 4.4.66 8.54.99 12.42.99 22.84 0 36.32-11.5 40.12-34.3a4 4 0 0 0-2-4.15zm-49.35 29.54c-41.05-6.15-66.91-46.83-74.86-67.48-7.87-20.48 6.66-38.74 10.3-42.86 2.97-.5 6.1-.72 7.4-.52C68.15 50.98 77.59 68.8 78 72c0 2.1-.68 5.02-8.83 13.17A4 4 0 0 0 68 88c0 20.95 44.18 50 52 50 6.8 0 15.68-11.44 20.73-18.89.29.01.78.12 1.48.47 1.44.72 3.94 2.35 7.1 4.41 4.16 2.72 9.7 6.34 16.23 10.09-2.97 14.28-11.26 28.72-42.95 23.96z"/>
</svg>
